HIERARCHY
ROOT root
{
	OFFSET	0	13.1	24.9
	CHANNELS 6  Xposition Yposition Zposition Xrotation Yrotation Zrotation
	JOINT spine_1
	{
		OFFSET	0	9.99999	0
		CHANNELS 3  Xrotation Yrotation Zrotation
		JOINT spine_2
		{
			OFFSET	0	112	-10
			CHANNELS 3  Xrotation Yrotation Zrotation
			JOINT spine_3
			{
				OFFSET	0	206.5	19.3
				CHANNELS 3  Xrotation Yrotation Zrotation
				JOINT spine_4
				{
					OFFSET	0	110.4	14.6
					CHANNELS 3  Xrotation Yrotation Zrotation
					JOINT neck_1
					{
						OFFSET	0	71.8	-50.3
						CHANNELS 3  Xrotation Yrotation Zrotation
						JOINT neck_2
						{
							OFFSET	0	86.2	-25.8
							CHANNELS 3  Xrotation Yrotation Zrotation
							JOINT head_ee
							{
								OFFSET	0	179.8	-8.7
								CHANNELS 3  Xrotation Yrotation Zrotation
								End Site
								{
									OFFSET	1	0	0
								}
							}
						}
					}
					JOINT left_clavicle
					{
						OFFSET	-43.2	22.4	-70.8
						CHANNELS 3  Xrotation Yrotation Zrotation
						JOINT left_shoulder
						{
							OFFSET	-93.9	-5.79999	48.7
							CHANNELS 3  Xrotation Yrotation Zrotation
							JOINT left_elbow
							{
								OFFSET	-291.4	-30.8	15.2
								CHANNELS 3  Xrotation Yrotation Zrotation
								JOINT left_lowarm_twist
								{
									OFFSET	-110.7	-3.89999	13.6
									CHANNELS 3  Xrotation Yrotation Zrotation
									JOINT left_hand
									{
										OFFSET	-110.7	-3.89999	13.6
										CHANNELS 3  Xrotation Yrotation Zrotation
										JOINT left_ee
										{
											OFFSET	-80.8	-5.10001	12.1
											CHANNELS 3  Xrotation Yrotation Zrotation
											End Site
											{
												OFFSET	1	0	0
											}
										}
									}
								}
							}
						}
					}
					JOINT right_clavicle
					{
						OFFSET	43.2	22.4	-70.8
						CHANNELS 3  Xrotation Yrotation Zrotation
						JOINT right_shoulder
						{
							OFFSET	93.9	-5.79999	48.7
							CHANNELS 3  Xrotation Yrotation Zrotation
							JOINT right_elbow
							{
								OFFSET	291.4	-30.8	15.2
								CHANNELS 3  Xrotation Yrotation Zrotation
								JOINT right_lowarm_twist
								{
									OFFSET	110.7	-3.89999	13.6
									CHANNELS 3  Xrotation Yrotation Zrotation
									JOINT right_hand
									{
										OFFSET	110.7	-3.89999	13.6
										CHANNELS 3  Xrotation Yrotation Zrotation
										JOINT right_ee
										{
											OFFSET	80.8	-5.10001	12.1
											CHANNELS 3  Xrotation Yrotation Zrotation
											End Site
											{
												OFFSET	1	0	0
											}
										}
									}
								}
							}
						}
					}
				}
			}
		}
	}
	JOINT left_hip
	{
		OFFSET	-82.8	-127.5	0.300001
		CHANNELS 3  Xrotation Yrotation Zrotation
		JOINT left_knee
		{
			OFFSET	-28.2	-396.7	2.2
			CHANNELS 3  Xrotation Yrotation Zrotation
			JOINT left_ankle
			{
				OFFSET	-11.7	-411.3	35.4
				CHANNELS 3  Xrotation Yrotation Zrotation
				JOINT left_toes
				{
					OFFSET	0	-60	-88.6
					CHANNELS 3  Xrotation Yrotation Zrotation
					JOINT left_foot_ee
					{
						OFFSET	-22.5	-16.5	-42.2
						CHANNELS 3  Xrotation Yrotation Zrotation
						End Site
						{
							OFFSET	1	0	0
						}
					}
				}
			}
		}
	}
	JOINT right_hip
	{
		OFFSET	82.8	-127.5	0.300001
		CHANNELS 3  Xrotation Yrotation Zrotation
		JOINT right_knee
		{
			OFFSET	28.2	-396.7	2.2
			CHANNELS 3  Xrotation Yrotation Zrotation
			JOINT right_ankle
			{
				OFFSET	11.7	-411.3	35.4
				CHANNELS 3  Xrotation Yrotation Zrotation
				JOINT right_toes
				{
					OFFSET	0	-60	-88.6
					CHANNELS 3  Xrotation Yrotation Zrotation
					JOINT right_foot_ee
					{
						OFFSET	22.5	-16.5	-42.2
						CHANNELS 3  Xrotation Yrotation Zrotation
						End Site
						{
							OFFSET	1	0	0
						}
					}
				}
			}
		}
	}
}
MOTION
Frames: 16
Frame Time: 0.02
1893.01 676.173 -1556.46 -67.3213 79.319 60.5675 2.95809 1.25522 5.99614 2.97766 0.871843 6.06352 3.06432 -0.0934156 6.12493 3.01307 0.873267 6.06331 -11.3563 2.03497 -11.4814 -11.0281 11.3811 -10.5921 -0.0 0.0 -0.0 -8.404 21.6026 -9.66714 -21.8319 -15.0861 67.8392 0.179815 -5.09032 0.00799285 -0.584485 -0.0209602 0.0717002 -0.918997 28.8662 6.29219 -0.0 0.0 -0.0 10.8599 2.91313 -21.5964 12.8914 32.0028 -72.5838 2.66929 52.8919 -1.3279 16.6035 -0.283287 2.09463 -1.33684 27.1488 20.3552 0.0 0.0 0.0 38.7519 6.47503 1.29932 0.100651 -0.00415738 -0.0148862 -0.283606 1.28271 0.0418561 -38.5911 0.0 0.0 -0.0 0.0 -0.0 -10.0264 1.8537 5.10805 -9.24613 -0.268858 -1.39199 38.8878 3.85667 4.81854 16.1262 -0.0 -0.0 0.0 0.0 0.0 
1873.71 674.527 -1555.25 -68.4712 78.7868 62.1446 3.11142 1.2157 6.0128 3.13113 0.831352 6.07764 3.21276 -0.119915 6.13286 3.16132 0.848341 6.0753 -11.132 1.64089 -11.6694 -10.7826 10.8014 -10.9042 -0.0 0.0 -0.0 -8.33244 21.4022 -9.63188 -21.9833 -14.8225 68.3101 0.189034 -5.34983 0.00883174 -0.82822 -0.0299173 0.101537 -0.970722 29.1956 6.1479 -0.0 0.0 -0.0 10.7237 2.73907 -21.2982 12.5232 31.434 -73.2156 2.69614 53.1672 -1.34935 16.6166 -0.283269 2.09629 -1.31711 27.93 20.5119 0.0 0.0 0.0 38.8676 6.273 0.98927 -2.12749 0.0817325 0.316249 -0.466961 1.15329 0.0689671 -38.2212 0.0 0.0 -0.0 0.0 -0.0 -10.2111 1.90814 5.247 -9.4531 -0.27229 -1.42356 37.7926 3.52516 4.71614 16.0014 -0.0 -0.0 0.0 0.0 0.0 
1848.63 676.138 -1552.36 -67.4433 78.23 60.7931 3.22579 1.21705 6.16321 3.24653 0.823185 6.22781 3.32839 -0.138629 6.28024 3.27441 0.853003 6.22381 -10.192 1.52899 -10.9224 -9.87317 10.2489 -10.2997 -0.0 0.0 -0.0 -8.15886 21.2414 -9.42685 -21.9704 -14.8603 68.8677 0.199854 -5.6541 0.0098691 -1.02337 -0.0371799 0.125398 -0.808993 28.8163 6.86706 -0.0 0.0 -0.0 10.8914 2.8365 -21.6605 11.4537 30.9722 -73.4 2.67626 52.9637 -1.33346 16.638 -0.283239 2.09903 -1.25946 26.6459 19.6428 0.0 0.0 0.0 38.9412 6.23871 1.0812 -3.83016 0.138641 0.571353 -0.769982 3.32762 0.113335 -37.6076 0.0 0.0 -0.0 0.0 -0.0 -10.3013 3.72463 5.97095 -11.4025 -0.299017 -1.72147 39.2075 3.85375 4.84664 16.1485 -0.0 -0.0 0.0 0.0 0.0 
1816.39 680.255 -1548.82 -70.6967 78.0282 64.0116 3.43538 1.04906 6.0888 3.45575 0.660233 6.14293 3.51778 -0.267122 6.17242 3.46536 0.709173 6.1375 -9.78327 1.8967 -9.5618 -9.53883 10.0741 -8.91137 -0.0 0.0 -0.0 -8.06901 20.3358 -9.60945 -21.6201 -14.9883 68.8646 0.220007 -6.21999 0.0119537 -1.15261 -0.0420345 0.141188 -0.526143 28.6295 8.33087 -0.0 0.0 -0.0 10.9568 2.64372 -21.7919 9.01553 29.9731 -73.5592 2.60289 52.1956 -1.27519 16.6453 -0.283229 2.09996 -1.16975 26.4266 18.9533 0.0 0.0 0.0 38.1019 6.22544 1.2016 -5.87074 0.196812 0.879098 -0.448241 5.07583 0.0657785 -37.3056 0.0 0.0 -0.0 0.0 -0.0 -10.6301 5.41507 6.32846 -12.6305 -0.310644 -1.90953 39.6149 3.9918 4.88401 16.2515 -0.0 -0.0 0.0 0.0 0.0 
1788.52 688.94 -1545.12 -73.9647 78.253 67.368 3.59781 1.05376 6.01626 3.61768 0.669515 6.07084 3.67917 -0.229802 6.1032 3.62799 0.73516 6.06327 -8.31598 4.3987 -7.42002 -8.16216 13.4268 -6.38359 -0.0 0.0 -0.0 -8.16161 19.8753 -9.91484 -20.6888 -16.1968 68.1876 0.27856 -7.85682 0.0191291 -1.32871 -0.0487071 0.162685 -0.231546 28.8099 10.0073 -0.0 0.0 -0.0 11.0648 3.66187 -22.0673 6.37144 29.3562 -73.7541 2.35352 49.372 -1.08192 15.9829 -0.283688 2.01535 -0.984252 25.5236 17.3552 0.0 0.0 0.0 36.8328 5.4604 1.78573 -7.68322 0.239257 1.15399 3.24304 6.294 -0.470966 -35.9826 0.0 0.0 -0.0 0.0 -0.0 -9.95439 6.03405 5.39386 -14.162 -0.319492 -2.14433 37.6445 1.42886 4.67955 15.9793 -0.0 -0.0 0.0 0.0 0.0 
1768.99 688.943 -1544.12 -78.2451 78.901 71.7196 3.69826 1.00853 5.95317 3.71774 0.628374 6.00502 3.77377 -0.251026 6.03249 3.72372 0.703094 5.99676 -7.92902 4.93593 -6.28432 -7.8144 13.6525 -5.18259 -0.0 0.0 -0.0 -8.13282 18.0576 -10.504 -19.2345 -17.8501 67.7777 0.335237 -9.42905 0.027647 -0.389714 -0.013894 0.0478305 0.02488 28.9787 11.4733 -0.0 0.0 -0.0 10.8867 2.76989 -21.6475 4.46068 28.7277 -75.2227 2.20782 47.5559 -0.972848 16.0989 -0.283678 2.03017 -0.948036 24.5181 16.7179 0.0 0.0 0.0 35.5202 4.95061 2.3789 -8.64796 0.258296 1.30081 6.03922 6.78326 -0.869744 -36.1281 0.0 0.0 -0.0 0.0 -0.0 -8.25894 7.08611 5.28379 -19.5332 -0.300901 -2.96792 40.2318 0.83095 4.9024 17.6507 -0.0 -0.0 0.0 0.0 0.0 
1743.56 694.024 -1540.03 -82.1691 79.0317 75.356 3.84068 0.98274 6.05433 3.86086 0.596231 6.10434 3.91338 -0.282513 6.12679 3.86169 0.686808 6.09485 -7.09491 5.58092 -5.66449 -6.98264 14.4458 -4.53845 -0.0 0.0 -0.0 -8.08969 17.063 -10.7757 -18.1534 -19.1719 67.3809 0.383145 -10.747 0.0360393 0.0813239 0.00285837 -0.00999273 0.181213 29.1342 12.3864 -0.0 0.0 -0.0 10.6038 3.09503 -21.057 2.06807 28.2161 -75.3187 1.98393 44.4975 -0.811663 15.7979 -0.283642 1.99173 -0.84349 23.6156 15.6551 0.0 0.0 0.0 34.294 4.03778 3.28655 -9.63808 0.275261 1.45179 9.1447 6.06173 -1.30433 -35.8444 0.0 0.0 -0.0 0.0 -0.0 -6.60276 7.70513 5.08352 -23.9065 -0.228843 -3.63497 40.3917 -1.15741 4.90198 18.9645 -0.0 -0.0 0.0 0.0 0.0 
1717.96 695.799 -1532.03 -91.3317 78.8979 84.4153 3.98437 0.887851 5.93297 4.0038 0.509212 5.97723 4.04555 -0.337012 5.98936 3.99605 0.6114 5.96767 -6.30486 5.65717 -6.84142 -6.1193 15.4721 -5.83072 -0.0 0.0 -0.0 -8.06309 15.8698 -11.1365 -16.5909 -20.3989 67.6175 0.480921 -13.4002 0.0564966 0.777823 0.0267559 -0.095737 0.430235 29.0736 13.744 -0.0 0.0 -0.0 10.3526 3.38153 -20.5323 -0.965317 26.2739 -75.0386 1.82209 42.0657 -0.700684 14.0109 -0.279265 1.76353 -0.415942 22.9564 12.5179 0.0 0.0 0.0 32.9841 2.98182 4.69868 -10.1616 0.283177 1.53174 13.4357 3.37707 -1.89121 -35.5905 0.0 0.0 -0.0 0.0 -0.0 -5.50555 9.07861 4.69945 -28.0682 -0.113198 -4.26304 40.1925 -2.88668 4.87752 19.7957 -0.0 -0.0 0.0 0.0 0.0 
1696.11 697.38 -1530.5 -93.0103 79.6347 86.0749 3.97768 0.977245 5.8261 3.99635 0.605191 5.87624 4.04753 -0.227007 5.90286 3.99964 0.706452 5.86497 -9.43055 8.12894 -6.72546 -9.38095 19.854 -4.64327 -0.0 0.0 -0.0 -8.1744 14.6532 -11.7354 -14.4568 -22.3025 67.8914 0.638611 -17.5548 0.0986056 1.15206 0.039165 -0.141924 0.522005 29.0974 14.2618 -0.0 0.0 -0.0 10.4448 2.03189 -20.6768 -3.14649 25.9691 -75.0436 1.57106 37.8893 -0.539291 15.6575 -0.283556 1.9738 -0.749928 21.9652 14.3597 0.0 0.0 0.0 31.1689 3.33803 4.96688 -12.127 0.306364 1.83239 16.531 3.28808 -2.2977 -34.4685 0.0 0.0 -0.0 0.0 -0.0 -5.13183 8.72038 4.29596 -30.6412 -0.0189716 -4.64665 39.6461 -4.3957 4.82732 20.8348 -0.0 -0.0 0.0 0.0 0.0 
1685.34 704.855 -1527.08 -99.3994 79.6853 92.6593 3.89715 0.790059 5.80285 3.91578 0.419852 5.84119 3.94814 -0.416697 5.84142 3.90092 0.509464 5.83408 -9.04296 7.19693 -6.10555 -8.98432 17.6993 -4.3245 -0.0 0.0 -0.0 -7.73895 13.1932 -11.458 -12.2846 -22.6011 67.7782 0.687768 -18.814 0.113947 2.01561 0.0666444 -0.2488 0.650816 29.3512 15.0578 -0.0 0.0 -0.0 10.6835 2.1753 -21.1884 -4.86119 24.4943 -74.5283 1.34312 33.6358 -0.405986 15.0315 -0.282636 1.89385 -0.630731 20.953 13.1414 0.0 0.0 0.0 29.8044 2.02507 5.38775 -10.8074 0.291933 1.63044 14.7952 2.97297 -2.07235 -34.4816 0.0 0.0 -0.0 0.0 -0.0 -2.2597 7.90697 4.24282 -33.179 0.090769 -5.02058 37.092 -4.1431 4.59802 20.0953 -0.0 -0.0 0.0 0.0 0.0 
1661.1 708.383 -1522.26 -105.659 80.7641 98.7892 3.67438 0.839347 5.65571 3.69204 0.478357 5.69747 3.73082 -0.359654 5.70616 3.68583 0.544546 5.69154 -9.44912 7.48525 -7.16682 -9.37254 18.9479 -5.23551 -0.0 0.0 -0.0 -7.87266 10.7594 -12.4664 -7.48584 -24.3942 68.7171 0.864628 -23.1858 0.177374 3.94578 0.122216 -0.489079 0.907319 29.1876 16.4477 -0.0 0.0 -0.0 10.7651 0.446103 -21.2716 -7.34423 22.9476 -74.0533 1.06003 27.7037 -0.261393 14.1872 -0.280013 1.78604 -0.433199 20.6211 11.6725 0.0 0.0 0.0 26.8887 0.718476 6.15192 -12.1178 0.30628 1.83098 18.9262 -0.896336 -2.62286 -31.3557 0.0 0.0 -0.0 0.0 -0.0 0.110717 8.24865 4.29931 -41.2919 0.550994 -6.17817 40.0278 -5.52711 4.86044 20.1188 -0.0 -0.0 0.0 0.0 0.0 
1651.97 708.665 -1519.44 -118.38 81.0334 111.709 3.51084 0.770729 5.55495 3.5279 0.416257 5.59258 3.56081 -0.42264 5.5921 3.5175 0.464415 5.5888 -11.9546 7.89598 -7.90613 -11.9809 20.0464 -5.38467 -0.0 0.0 -0.0 -8.13721 10.0477 -13.1767 -2.08402 -25.9393 69.3127 1.03745 -27.1989 0.25098 5.36422 0.157875 -0.666759 1.00199 28.935 16.9111 -0.0 0.0 -0.0 10.7282 0.963148 -21.2229 -9.14596 22.4824 -74.0628 0.916327 24.414 -0.198238 13.5704 -0.277093 1.70731 -0.416565 20.9624 11.7018 0.0 0.0 0.0 25.1008 0.0490707 6.49115 -12.1353 0.306441 1.83367 20.4403 -2.73305 -2.82635 -30.1089 0.0 0.0 -0.0 0.0 -0.0 3.89848 6.13581 4.78895 -47.1877 0.986154 -6.97354 39.6903 -6.24644 4.83204 21.0976 -0.0 -0.0 0.0 0.0 0.0 
1641.99 706.414 -1516.72 -123.173 81.1568 116.448 3.45825 0.751791 5.52414 3.47513 0.399308 5.56064 3.50649 -0.439981 5.55758 3.46369 0.441863 5.55743 -13.3139 8.30446 -6.97981 -13.4538 20.1358 -4.10829 -0.0 0.0 -0.0 -8.45451 9.48101 -13.9493 2.08629 -27.689 69.6602 1.19298 -30.5806 0.326156 5.76689 0.167195 -0.717352 1.11227 28.3443 17.3741 -0.0 0.0 -0.0 10.882 0.991263 -21.5488 -10.8959 21.1489 -72.804 0.740445 20.1428 -0.131514 13.8082 -0.27832 1.73767 -0.361243 19.3435 10.6569 0.0 0.0 0.0 23.1918 -0.606504 7.05834 -10.6475 0.289869 1.60599 22.8123 -4.82852 -3.13803 -28.5419 0.0 0.0 -0.0 0.0 -0.0 6.44218 6.20681 4.70353 -52.8497 1.47931 -7.6922 39.1311 -6.99023 4.78445 22.0159 -0.0 -0.0 0.0 0.0 0.0 
1639.03 711.72 -1511.11 -122.954 80.5404 116.613 3.36166 0.703824 5.288 3.37714 0.366397 5.32194 3.40481 -0.446155 5.31586 3.36562 0.397764 5.31969 -14.6592 6.78245 -6.53842 -14.778 16.8714 -3.96272 -0.0 0.0 -0.0 -8.00898 8.53625 -13.4107 5.66314 -28.9069 69.8301 1.32219 -33.2222 0.394457 7.72879 0.207504 -0.964715 1.21138 26.4617 17.4174 -0.0 0.0 -0.0 11.1471 0.367014 -22.0712 -13.0772 20.3649 -71.6356 0.635677 17.4791 -0.0977222 12.9118 -0.273039 1.62329 -0.579027 17.1509 11.2154 0.0 0.0 0.0 21.9856 -1.21482 6.79106 -7.65959 0.238759 1.1504 21.3614 -6.06445 -2.97473 -28.5765 0.0 0.0 -0.0 0.0 -0.0 14.0065 3.02625 5.08136 -57.0569 1.89071 -8.19328 35.8585 -9.5028 4.49207 22.0336 -0.0 -0.0 0.0 0.0 0.0 
1630.52 718.866 -1509.08 -130.519 80.0085 124.432 3.31321 0.547854 5.07549 3.3275 0.224207 5.09998 3.34173 -0.559021 5.07427 3.3059 0.248305 5.09886 -15.7618 6.73517 -6.0924 -15.9211 16.4339 -3.3929 -0.0 0.0 -0.0 -7.15834 6.79531 -12.3124 8.39458 -29.0218 69.1965 1.37014 -34.164 0.421058 8.40538 0.219437 -1.05032 1.15605 25.0474 16.6789 -0.0 0.0 -0.0 11.1483 0.48793 -22.0815 -15.2131 19.8141 -71.1044 0.524701 14.5702 -0.0670775 11.8674 -0.264633 1.49016 -0.52681 17.089 10.8347 0.0 0.0 0.0 20.606 -2.32761 6.77728 -7.16897 0.228099 1.07586 20.8269 -8.92274 -2.94596 -27.8431 0.0 0.0 -0.0 0.0 -0.0 20.919 1.93964 6.11691 -61.8417 2.4021 -8.72516 33.3804 -10.7643 4.25461 23.3795 -0.0 -0.0 0.0 0.0 0.0 
1622.06 718.5 -1504.69 -130.004 79.8543 124.315 3.20691 0.548922 4.93689 3.22043 0.234058 4.96173 3.23568 -0.537171 4.93818 3.20175 0.248473 4.96103 -15.2707 6.03707 -7.02361 -15.3557 15.6854 -4.59211 -0.0 0.0 -0.0 -7.07287 5.88629 -12.4013 10.6744 -30.6715 68.6784 1.48374 -36.3137 0.486616 9.28719 0.233471 -1.16208 1.22544 22.489 16.3236 -0.0 0.0 -0.0 11.2478 0.881896 -22.3174 -17.4238 19.2358 -69.1674 0.466769 13.0195 -0.0532624 11.9996 -0.26583 1.507 -0.61158 14.995 10.5311 0.0 0.0 0.0 19.6831 -1.76547 6.76455 -5.84536 0.196156 0.875257 20.9415 -9.51 -2.96924 -26.3626 0.0 0.0 -0.0 0.0 -0.0 24.9369 0.0379041 6.5539 -63.5921 2.6001 -8.90892 33.4016 -12.1839 4.26726 24.0818 -0.0 -0.0 0.0 0.0 0.0 
